<svg width="24" height="24" viewBox="0 0 24 24" fill="none" xmlns="http://www.w3.org/2000/svg">
  <path fill-rule="evenodd" clip-rule="evenodd" d="M12 2C6.477 2 2 6.477 2 12C2 16.418 4.865 20.166 8.839 21.489C9.339 21.581 9.521 21.27 9.521 21.006C9.521 20.742 9.499 19.758 9.499 18.871C7 19.42 6.35 18.357 6.15 17.775C6.037 17.488 5.6 16.601 5.15 16.337C4.775 16.126 4.275 15.577 5.137 15.565C5.95 15.553 6.541 16.289 6.75 16.588C7.75 18.139 9.137 17.813 9.557 17.549C9.649 16.873 9.917 16.421 10.217 16.166C7.975 15.911 5.65 15.026 5.65 11.286C5.65 10.259 6.05 9.417 6.775 8.756C6.675 8.505 6.325 7.491 7.025 6.121C7.025 6.121 7.962 5.866 9.521 7.086C10.325 6.866 11.175 6.756 12.025 6.756C12.875 6.756 13.725 6.866 14.529 7.086C16.087 5.855 17.025 6.121 17.025 6.121C17.725 7.491 17.375 8.505 17.275 8.756C18 9.417 18.4 10.247 18.4 11.286C18.4 15.037 16.063 15.911 13.821 16.166C14.21 16.483 14.55 17.105 14.55 18.072C14.55 19.468 14.529 20.655 14.529 21.006C14.529 21.27 14.712 21.592 15.212 21.489C17.1938 20.817 18.911 19.5149 20.1371 17.7702C21.3632 16.0255 21.9994 13.9453 22 11.817C22 6.477 17.523 2 12 2Z" fill="white"/>
</svg>